# xmcd
#
# Track frame offsets:
#	150
#	22785
#	47823
#	62086
#	85621
#	101097
#	120336
#	145355
#	170409
#	190726
#	208486
#	237521
#	258423
#	277141
#	294581
#	314717
#
# Disc length: 4374 seconds
#
# Revision: 1
# Processed by: cddbd v1.5.2PL0 Copyright (c) Steve Scherf et al.
# Submitted via: audiograbber 1.83.01
#
DISCID=f3111410
DTITLE=Mark Knopfler - Sailing to Philadelphia
DYEAR=1900
DGENRE=
TTITLE0=What Is It
TTITLE1=Sailing to Philadelphia
TTITLE2=Who's Your Baby Now
TTITLE3=Baloney Again
TTITLE4=The Last Laugh
TTITLE5=Do America
TTITLE6=Silvertown Blues
TTITLE7=El Macho
TTITLE8=Prairie Wedding
TTITLE9=Wanderlust
TTITLE10=Speedway to Nazareth
TTITLE11=Junkie Doll
TTITLE12=One More Matinee
TTITLE13=The Long Highway
TTITLE14=Let's See You
TTITLE15=Camerado
EXTD=
EXTT0=
EXTT1=
EXTT2=
EXTT3=
EXTT4=
EXTT5=
EXTT6=
EXTT7=
EXTT8=
EXTT9=
EXTT10=
EXTT11=
EXTT12=
EXTT13=
EXTT14=
EXTT15=
PLAYORDER=
